<svg version="1.1" xmlns="http://www.w3.org/2000/svg" xmlns:xlink="http://www.w3.org/1999/xlink" x="0px" y="0px" viewBox="0 0 1000 1000" enable-background="new 0 0 1000 1000" xml:space="preserve">
<g><path d="M678.2,10h-490C139,10,99.1,49.9,99.1,99.1v801.8c0,49.2,39.9,89.1,89.1,89.1h623.6c49.2,0,89.1-39.9,89.1-89.1V255L678.2,10z M856.3,900.9c0,24.6-20,44.5-44.5,44.5H188.2c-24.6,0-44.5-19.9-44.5-44.5V99.1c0-24.6,20-44.5,44.5-44.5h400.9v222.7c0,24.6,20,44.5,44.5,44.5h222.7L856.3,900.9L856.3,900.9z M633.6,277.3V54.5h22.3l200.4,222.7H633.6z"/></g>
</svg>